PathFileType	4	(X/Y/Z)	RBDS002static.trc
DataRate	CameraRate	NumFrames	NumMarkers	Units	OrigDataRate	OrigDataStartFrame	OrigNumFrames
150.000000	150.000000	4	48	mm	150.000000	18	150
Frame#	Time	L.Ankle			L.Ankle.Medial			L.ASIS			L.GTR			L.Heel.Bottom			L.Heel.Lateral			L.Heel.Top			L.HF			L.Iliac.Crest			L.Knee			L.Knee.Medial			L.MT1			L.MT2			L.MT5			L.PSIS			L.Shank.Bottom.Lateral			L.Shank.Bottom.Medial			L.Shank.Top.Lateral			L.Shank.Top.Medial			L.Thigh.Bottom.Lateral			L.Thigh.Bottom.Medial			L.Thigh.Top.Lateral			L.Thigh.Top.Medial			L.TT			R.Ankle			R.Ankle.Medial			R.ASIS			R.GTR			R.Heel.Bottom			R.Heel.Lateral			R.Heel.Top			R.HF			R.Iliac.Crest			R.Knee			R.Knee.Medial			R.MT1			R.MT2			R.MT5			R.PSIS			R.Shank.Bottom.Lateral			R.Shank.Bottom.Medial			R.Shank.Top.Lateral			R.Shank.Top.Medial			R.Thigh.Bottom.Lateral			R.Thigh.Bottom.Medial			R.Thigh.Top.Lateral			R.Thigh.Top.Medial			R.TT			
		X1	Y1	Z1	X2	Y2	Z2	X3	Y3	Z3	X4	Y4	Z4	X5	Y5	Z5	X6	Y6	Z6	X7	Y7	Z7	X8	Y8	Z8	X9	Y9	Z9	X10	Y10	Z10	X11	Y11	Z11	X12	Y12	Z12	X13	Y13	Z13	X14	Y14	Z14	X15	Y15	Z15	X16	Y16	Z16	X17	Y17	Z17	X18	Y18	Z18	X19	Y19	Z19	X20	Y20	Z20	X21	Y21	Z21	X22	Y22	Z22	X23	Y23	Z23	X24	Y24	Z24	X25	Y25	Z25	X26	Y26	Z26	X27	Y27	Z27	X28	Y28	Z28	X29	Y29	Z29	X30	Y30	Z30	X31	Y31	Z31	X32	Y32	Z32	X33	Y33	Z33	X34	Y34	Z34	X35	Y35	Z35	X36	Y36	Z36	X37	Y37	Z37	X38	Y38	Z38	X39	Y39	Z39	X40	Y40	Z40	X41	Y41	Z41	X42	Y42	Z42	X43	Y43	Z43	X44	Y44	Z44	X45	Y45	Z45	X46	Y46	Z46	X47	Y47	Z47	X48	Y48	Z48	

19	0.12	713.184814453125	106.3101272583008	1030.540405273438	735.3897705078125	119.1171188354492	1112.052978515625	854.3546752929688	1050.596435546875	1108.294311523438	776.0499267578125	953.8138427734375	1031.557373046875	637.3679809570313	44.16064834594727	1072.248779296875	670.4649658203125	55.16542816162109	1027.265014648438	648.8547973632813	94.17147827148438	1071.407592773438	723.515869140625	483.9504699707031	1007.885437011719	768.0457763671875	1129.553588867188	1051.435180664063	736.4700317382813	551.9705200195313	1011.707275390625	715.267333984375	530.0548095703125	1140.401000976563	864.9883422851563	63.65312957763672	1121.737426757813	871.5382690429688	71.24965667724609	1073.83251953125	838.7343139648438	47.46991348266602	1005.164916992188	666.5490112304688	1096.3818359375	1166.846313476563	701.803955078125	176.4171905517578	1020.263000488281	663.0897827148438	175.6192016601563	1054.21435546875	691.524658203125	255.2091674804688	1004.482727050781	653.0782470703125	259.2769775390625	1041.132690429688	726.2442626953125	649.0110473632813	1010.546508789063	673.765869140625	641.9140625	1061.405395507813	715.24951171875	758.8359985351563	1019.567321777344	668.68994140625	752.2008056640625	1069.905029296875	782.61083984375	462.8063049316406	1062.5498046875	709.9686279296875	105.0022430419922	1411.244262695313	733.0779418945313	121.2624282836914	1327.279663085938	850.0220336914063	1049.920288085938	1326.6162109375	767.981689453125	964.6505126953125	1398.689208984375	632.5546875	44.06803894042969	1374.578979492188	658.052734375	59.21786117553711	1412.347290039063	644.7437744140625	94.45639801025391	1373.222778320313	734.1029052734375	486.693603515625	1422.671508789063	764.9492797851563	1132.814819335938	1374.093139648438	734.6719970703125	558.8739013671875	1415.479736328125	722.3953247070313	535.884765625	1284.718505859375	862.4861450195313	66.25825500488281	1323.640502929688	865.8690185546875	74.73511505126953	1366.902709960938	838.37939453125	56.97963333129883	1435.814453125	665.1983642578125	1098.077270507813	1255.915893554688	697.4124145507813	189.2134857177734	1423.532470703125	657.5635986328125	191.3501739501953	1386.298583984375	688.6988525390625	268.995361328125	1435.56591796875	651.2391967773438	270.4918518066406	1396.13037109375	718.9149780273438	660.165771484375	1417.7353515625	666.011474609375	657.7725219726563	1365.62744140625	710.7539672851563	770.754150390625	1417.061401367188	661.544921875	767.9515991210938	1366.828247070313	789.312255859375	475.6596374511719	1367.389282226563	
20	0.1266666666666667	713.17431640625	106.3062286376953	1030.530883789063	735.3912963867188	119.1181030273438	1112.076293945313	854.3417358398438	1050.599365234375	1108.288330078125	776.032470703125	953.80810546875	1031.552856445313	637.367431640625	44.16706848144531	1072.248413085938	670.464111328125	55.17142868041992	1027.265625	648.8502807617188	94.17754364013672	1071.396484375	723.4973754882813	483.9577331542969	1007.886108398438	768.0306396484375	1129.56103515625	1051.444091796875	736.4661865234375	551.969482421875	1011.711547851563	715.2542724609375	530.0582885742188	1140.411376953125	864.9756469726563	63.65231704711914	1121.734130859375	871.528076171875	71.25046539306641	1073.818481445313	838.730224609375	47.46395111083984	1005.167297363281	666.5382080078125	1096.384399414063	1166.844604492188	701.7959594726563	176.4155883789063	1020.25048828125	663.0865478515625	175.6307373046875	1054.201293945313	691.5072021484375	255.2204895019531	1004.477905273438	653.0703735351563	259.2764587402344	1041.11328125	726.22216796875	649.0158081054688	1010.544616699219	673.7467651367188	641.9168701171875	1061.420776367188	715.2222900390625	758.83984375	1019.571044921875	668.6713256835938	752.1962280273438	1069.906494140625	782.5807495117188	462.8031311035156	1062.545043945313	709.9659423828125	105.0019149780273	1411.224609375	733.0667724609375	121.2666854858398	1327.263916015625	850.0025024414063	1049.911743164063	1326.615966796875	767.9711303710938	964.6555786132813	1398.696166992188	632.55615234375	44.06949996948242	1374.582153320313	658.0492553710938	59.21045303344727	1412.333618164063	644.7427368164063	94.45780181884766	1373.218017578125	734.103271484375	486.6784973144531	1422.665771484375	764.9277954101563	1132.803833007813	1374.109619140625	734.6641845703125	558.8731689453125	1415.482666015625	722.3692016601563	535.8779907226563	1284.701782226563	862.429931640625	66.20570373535156	1323.634887695313	865.86376953125	74.73531341552734	1366.89404296875	838.3758544921875	56.99017333984375	1435.827392578125	665.185791015625	1098.071166992188	1255.920532226563	697.41259765625	189.2123718261719	1423.525146484375	657.5642700195313	191.3439636230469	1386.28759765625	688.69775390625	269.0001831054688	1435.560424804688	651.2379150390625	270.4895324707031	1396.129638671875	718.9060668945313	660.1715698242188	1417.734619140625	665.9954833984375	657.7670288085938	1365.626220703125	710.7362060546875	770.7511596679688	1417.059936523438	661.5303955078125	767.9453735351563	1366.8408203125	789.3058471679688	475.6421508789063	1367.366333007813	
21	0.1333333333333333	713.1854858398438	106.3147506713867	1030.546508789063	735.3886108398438	119.1103286743164	1112.061279296875	854.3216552734375	1050.596313476563	1108.307373046875	776.0289916992188	953.8040771484375	1031.5791015625	637.3614501953125	44.15948867797852	1072.249633789063	670.4652709960938	55.16975402832031	1027.27392578125	648.8533325195313	94.18032836914063	1071.401000976563	723.5032958984375	483.9641418457031	1007.88623046875	768.0355224609375	1129.570678710938	1051.45703125	736.445068359375	551.9769897460938	1011.718811035156	715.2490234375	530.06298828125	1140.406005859375	864.9883422851563	63.65318298339844	1121.737426757813	871.5341186523438	71.25019073486328	1073.830932617188	838.7326049804688	47.47151947021484	1005.167175292969	666.50439453125	1096.387084960938	1166.84814453125	701.794677734375	176.4138641357422	1020.264465332031	663.0839233398438	175.6294403076172	1054.216796875	691.5167236328125	255.2279357910156	1004.487854003906	653.0693359375	259.2804870605469	1041.127319335938	726.2174682617188	649.0079956054688	1010.562622070313	673.7396240234375	641.9228515625	1061.437255859375	715.2154541015625	758.8368530273438	1019.576721191406	668.656494140625	752.1957397460938	1069.915161132813	782.5758666992188	462.8086547851563	1062.544799804688	709.9713745117188	104.9902114868164	1411.217651367188	733.0655517578125	121.2609939575195	1327.26611328125	849.997802734375	1049.915893554688	1326.62109375	767.9566650390625	964.6513671875	1398.696533203125	632.5518798828125	44.0670051574707	1374.583740234375	658.0521240234375	59.20766830444336	1412.331420898438	644.737060546875	94.45412445068359	1373.214111328125	734.1019287109375	486.6857604980469	1422.665283203125	764.9171752929688	1132.803955078125	1374.118774414063	734.6546020507813	558.8619995117188	1415.490600585938	722.3759155273438	535.873046875	1284.711547851563	862.4262084960938	66.19960021972656	1323.648803710938	865.8665771484375	74.73610687255859	1366.897338867188	838.3892822265625	56.98264312744141	1435.806640625	665.1718139648438	1098.064697265625	1255.938842773438	697.4107055664063	189.2066040039063	1423.521240234375	657.5643920898438	191.3459320068359	1386.28466796875	688.7039184570313	268.9893493652344	1435.561279296875	651.2393798828125	270.4824523925781	1396.115600585938	718.9049682617188	660.1625366210938	1417.742797851563	665.9827270507813	657.766845703125	1365.635131835938	710.7352905273438	770.7507934570313	1417.049926757813	661.5156860351563	767.946044921875	1366.8359375	789.3063354492188	475.6431579589844	1367.38720703125	
22	0.14	713.1641235351563	106.3758544921875	1030.552612304688	735.392578125	119.1070175170898	1112.053344726563	854.3084106445313	1050.601318359375	1108.307983398438	775.9893798828125	953.8311767578125	1031.558349609375	637.3631591796875	44.16928863525391	1072.239379882813	670.4595336914063	55.17095565795898	1027.263061523438	648.8457641601563	94.17739868164063	1071.401733398438	723.46044921875	483.9688720703125	1007.8857421875	768.0166625976563	1129.583618164063	1051.45849609375	736.4240112304688	551.986328125	1011.712524414063	715.2420043945313	530.0558471679688	1140.41845703125	864.9766235351563	63.65122222900391	1121.745483398438	871.5332641601563	71.25748443603516	1073.823852539063	838.7271728515625	47.46795654296875	1005.169372558594	666.4869995117188	1096.382080078125	1166.8671875	701.7882080078125	176.4261932373047	1020.262817382813	663.0899047851563	175.6203460693359	1054.213623046875	691.4929809570313	255.2230834960938	1004.481628417969	653.0497436523438	259.2868347167969	1041.130249023438	726.1954956054688	649.0192260742188	1010.562866210938	673.7272338867188	641.9155883789063	1061.433471679688	715.2039794921875	758.8458251953125	1019.584716796875	668.6328125	752.1962890625	1069.903930664063	782.5596313476563	462.8127136230469	1062.545166015625	709.9700317382813	104.989013671875	1411.216552734375	733.063720703125	121.2628479003906	1327.27783203125	849.9821166992188	1049.927612304688	1326.621704101563	767.9285888671875	964.6691284179688	1398.711547851563	632.5521850585938	44.06475830078125	1374.584228515625	658.0545654296875	59.21799468994141	1412.331787109375	644.745361328125	94.44766998291016	1373.218872070313	734.1030883789063	486.6789855957031	1422.671508789063	764.8966674804688	1132.79931640625	1374.147827148438	734.6605224609375	558.8556518554688	1415.470458984375	722.3429565429688	535.8919677734375	1284.704467773438	862.466064453125	66.26491546630859	1323.635864257813	865.8644409179688	74.74391937255859	1366.889892578125	838.371337890625	56.98653411865234	1435.819946289063	665.1455078125	1098.068725585938	1255.931518554688	697.4175415039063	189.2136077880859	1423.526489257813	657.5650024414063	191.3352355957031	1386.294311523438	688.704833984375	268.9889526367188	1435.560424804688	651.2333374023438	270.48046875	1396.13134765625	718.9080810546875	660.156494140625	1417.734130859375	665.9749755859375	657.7645263671875	1365.654052734375	710.7244262695313	770.7501220703125	1417.058471679688	661.4999389648438	767.940673828125	1366.849243164063	789.2926025390625	475.66259765625	1367.38427734375	
